<svg height="512pt" viewBox="0 0 512.00002 512" width="512pt" xmlns="http://www.w3.org/2000/svg"><path d="m178.253906 17.5-42 44.5 85.246094 83.191406 43.75-48.691406zm0 0" fill="#00f7ff"/><path d="m411.269531 248.136719-42 44.5 85.25 83.191406 43.75-48.691406zm0 0" fill="#27d8f6"/><path d="m127.183594 399.8125c-3.839844 0-7.679688-1.464844-10.605469-4.394531-5.859375-5.859375-5.859375-15.355469 0-21.214844l13.433594-13.433594c5.855469-5.859375 15.355469-5.859375 21.210937 0 5.859375 5.859375 5.859375 15.355469 0 21.210938l-13.433594 13.4375c-2.929687 2.929687-6.769531 4.394531-10.605468 4.394531zm0 0" fill="#ffda2d"/><path d="m383.601562 274.394531c-3.835937 0-7.675781-1.460937-10.605468-4.394531l-79.640625-79.640625c-5.859375-5.855469-5.859375-15.355469 0-21.210937 5.855469-5.859376 15.355469-5.859376 21.210937 0l79.644532 79.640624c5.855468 5.859376 5.855468 15.355469 0 21.210938-2.929688 2.933594-6.769532 4.394531-10.609376 4.394531zm0 0" fill="#ebb100"/><path d="m202.820312 324.171875c-3.839843 0-7.675781-1.460937-10.605468-4.390625-5.859375-5.859375-5.859375-15.355469 0-21.214844l30.28125-30.28125c5.855468-5.855468 15.355468-5.855468 21.210937 0 5.859375 5.859375 5.859375 15.355469 0 21.214844l-30.277343 30.28125c-2.929688 2.925781-6.769532 4.390625-10.609376 4.390625zm0 0" fill="#ffda2d"/><path d="m243.273438 267.894531-51.453126 51.449219c.132813.144531.253907.296875.394532.4375 2.929687 2.925781 6.769531 4.390625 10.605468 4.390625 3.839844 0 7.679688-1.460937 10.605469-4.390625l30.28125-30.28125c5.859375-5.859375 5.859375-15.355469 0-21.214844-.136719-.136718-.289062-.257812-.433593-.390625zm0 0" fill="#ebb100"/><path d="m199.570312 445.332031c-3.960937 0-7.78125-1.570312-10.605468-4.394531l-117.910156-117.910156c-3.074219-3.074219-4.664063-7.335938-4.351563-11.675782.308594-4.335937 2.488281-8.328124 5.96875-10.9375 18.929687-14.179687 42.414063-21.109374 66.113281-19.515624 23.945313 1.613281 46.484375 11.855468 63.46875 28.839843 16.988282 16.984375 27.230469 39.523438 28.839844 63.46875 1.59375 23.703125-5.335938 47.183594-19.515625 66.113281-2.609375 3.484376-6.597656 5.660157-10.9375 5.96875-.359375.03125-.714844.042969-1.070313.042969zm0 0" fill="#f3eee9"/><path d="m507.605469 322.589844-84.851563-84.851563c-5.855468-5.859375-15.355468-5.859375-21.214844 0l-42.425781 42.425781c-5.855469 5.855469-5.855469 15.355469 0 21.210938l84.855469 84.851562c2.925781 2.929688 6.765625 4.394532 10.605469 4.394532 3.835937 0 7.675781-1.464844 10.605469-4.394532l42.425781-42.425781c2.8125-2.8125 4.394531-6.625 4.394531-10.605469 0-3.976562-1.582031-7.792968-4.394531-10.605468zm-95.457031-53.03125 21.210937 21.210937-21.210937 21.214844-21.214844-21.214844zm42.425781 84.851562-21.214844-21.214844 21.214844-21.210937 21.210937 21.210937zm0 0" fill="#008adf"/><path d="m286.1875 176.984375c-3.835938 0-7.675781-1.464844-10.605469-4.394531l-33.582031-33.585938c-5.859375-5.859375-5.859375-15.355468 0-21.214844 5.855469-5.855468 15.351562-5.855468 21.210938 0l33.585937 33.585938c5.855469 5.859375 5.855469 15.355469 0 21.214844-2.929687 2.929687-6.769531 4.394531-10.609375 4.394531zm0 0" fill="#ffda2d"/><g fill="#3aaaff"><path d="m274.261719 89.246094-84.851563-84.851563c-5.855468-5.859375-15.355468-5.859375-21.214844 0l-42.425781 42.425781c-5.855469 5.855469-5.855469 15.355469 0 21.210938l84.855469 84.851562c2.929688 2.929688 6.765625 4.394532 10.605469 4.394532 3.835937 0 7.675781-1.464844 10.605469-4.394532l42.425781-42.425781c2.8125-2.8125 4.394531-6.625 4.394531-10.605469 0-3.976562-1.582031-7.792968-4.394531-10.605468zm-95.457031-53.03125 21.210937 21.210937-21.210937 21.214844-21.214844-21.214844zm42.425781 84.851562-21.214844-21.214844 21.214844-21.210937 21.210937 21.210937zm0 0"/><path d="m111.414062 450.835938c-1.726562 0-3.480468-.300782-5.191406-.933594-10.027344-3.699219-19.324218-9.652344-26.886718-17.210938-7.601563-7.601562-13.359376-16.5625-17.121094-26.636718-2.894532-7.761719 1.046875-16.402344 8.8125-19.296876 7.761718-2.898437 16.398437 1.046876 19.296875 8.808594 2.246093 6.019532 5.683593 11.371094 10.226562 15.914063 4.515625 4.515625 10.066407 8.070312 16.058594 10.28125 7.769531 2.867187 11.746094 11.492187 8.878906 19.261719-2.234375 6.058593-7.972656 9.8125-14.074219 9.8125zm0 0"/><path d="m107.644531 512c-1.015625 0-2.042969-.105469-3.074219-.320312-25.703124-5.355469-49.097656-18-67.660156-36.5625-18.605468-18.605469-31.257812-42.054688-36.59375-67.816407-1.683594-8.113281 3.53125-16.050781 11.644532-17.730469 8.109374-1.683593 16.050781 3.535157 17.730468 11.648438 4.144532 20.011719 13.976563 38.230469 28.429688 52.6875 14.421875 14.421875 32.601562 24.246094 52.570312 28.40625 8.109375 1.691406 13.3125 9.636719 11.621094 17.746094-1.472656 7.078125-7.710938 11.941406-14.667969 11.941406zm0 0"/></g><path d="m265.066406 325.566406c-3.976562 0-7.792968-1.582031-10.605468-4.394531l-63.640626-63.640625c-5.855468-5.855469-5.855468-15.355469 0-21.210938l125.867188-125.871093c23.394531-23.390625 61.460938-23.390625 84.851562 0 23.394532 23.394531 23.394532 61.460937 0 84.855469l-125.867187 125.867187c-2.8125 2.8125-6.625 4.394531-10.605469 4.394531zm0 0" fill="#00429b"/><path d="m401.542969 110.453125c-.140625-.140625-.285157-.265625-.425781-.402344l-178.890626 178.886719 32.234376 32.234375c2.8125 2.8125 6.628906 4.394531 10.605468 4.394531 3.980469 0 7.792969-1.582031 10.605469-4.394531l125.867187-125.867187c23.394532-23.394532 23.394532-61.457032.003907-84.851563zm0 0" fill="#002659"/><path d="m286.589844 140.554688 21.214844-21.210938 84.847656 84.847656-21.214844 21.210938zm0 0" fill="#f3eee9" fill-rule="evenodd"/><path d="m116.609375 421.757812c-5.992187-2.210937-11.542969-5.765624-16.058594-10.28125-.144531-.144531-.277343-.296874-.421875-.441406l-21.210937 21.210938c.144531.148437.273437.300781.417969.445312 7.5625 7.558594 16.859374 13.511719 26.886718 17.210938 1.710938.632812 3.464844.929687 5.191406.929687 6.101563 0 11.839844-3.75 14.074219-9.808593 2.867188-7.769532-1.109375-16.394532-8.878906-19.265626zm0 0" fill="#008adf"/><path d="m110.691406 482.3125c-19.96875-4.164062-38.148437-13.988281-52.570312-28.410156-.140625-.140625-.277344-.292969-.421875-.4375l-21.210938 21.214844c.140625.144531.277344.292968.421875.4375 18.5625 18.5625 41.957032 31.207031 67.660156 36.5625 1.03125.214843 2.058594.320312 3.074219.320312 6.957031 0 13.195313-4.863281 14.667969-11.941406 1.691406-8.109375-3.511719-16.054688-11.621094-17.746094zm0 0" fill="#008adf"/><path d="m150.789062 360.378906-34.605468 34.605469c.132812.144531.253906.292969.390625.433594 2.929687 2.929687 6.769531 4.394531 10.605469 4.394531 3.839843 0 7.679687-1.464844 10.609374-4.394531l13.433594-13.4375c5.859375-5.855469 5.859375-15.351563 0-21.210938-.136718-.140625-.289062-.257812-.433594-.390625zm0 0" fill="#ebb100"/><path d="m202.253906 309.738281c-.136718-.136719-.285156-.265625-.421875-.402343l-72.234375 72.234374 59.367188 59.367188c2.824218 2.824219 6.644531 4.394531 10.605468 4.394531.355469 0 .710938-.011719 1.070313-.039062 4.339844-.308594 8.332031-2.488281 10.9375-5.96875 14.179687-18.929688 21.109375-42.410157 19.515625-66.113281-1.613281-23.945313-11.855469-46.484376-28.839844-63.472657zm0 0" fill="#e9dfda"/><path d="m328.597656 182.566406 21.214844-21.214844 42.839844 42.839844-21.214844 21.214844zm0 0" fill="#e9dfda" fill-rule="evenodd"/></svg>